# xmcd CD database file
#
# Track frame offsets:
#	183
#	20165
#	47348
#	75980
#	106475
#	129195
#	160345
#	175720
#	199558
#
# Disc length: 2870 seconds
#
# Revision: 2
# Processed by: cddbd v1.5.2PL0 Copyright (c) Steve Scherf et al.
# Submitted via: CDex 1.70beta2
#
DISCID=620b3409
DTITLE=Romano, Sclavis, Texier, Le Querrec - Carnet de routes
DYEAR=1995
DGENRE=Jazz
TTITLE0=Standing Ovation (for Mandela)
TTITLE1=Vol
TTITLE2=Daoulagad (à GLQ)
TTITLE3=Bororo Dance
TTITLE4=Annobon
TTITLE5=Les Petits Lits Blancs
TTITLE6=Flash Mémoire
TTITLE7=Korokoro
TTITLE8=Entrave
EXTD=YEAR: 1995
EXTT0=
EXTT1=
EXTT2=
EXTT3=
EXTT4=
EXTT5=
EXTT6=
EXTT7=
EXTT8=
PLAYORDER=
